<svg width="27" height="26" viewBox="0 0 27 26" fill="none" xmlns="http://www.w3.org/2000/svg">
<g clip-path="url(#clip0_1_163)">
<path d="M23.6348 21.1039L24.9133 24.0542C25.1496 24.598 25.8001 24.8552 26.3677 24.6293C26.9363 24.4057 27.2059 23.783 26.9703 23.2389L25.6921 20.2896L23.6348 21.1039Z" fill="#333333"/>
<path d="M24.4878 23.0706L26.5448 22.2561L24.4878 23.0706Z" fill="#333333"/>
<path d="M20.9373 14.877L23.8465 16.0287L20.9373 14.877Z" fill="#333333"/>
<path d="M22.5203 8.89657C22.5203 10.4644 21.1914 11.735 19.553 11.735C17.9129 11.735 16.5837 10.4644 16.5837 8.89657C16.5837 7.32909 17.9129 6.05908 19.553 6.05908C21.1911 6.05908 22.5203 7.32909 22.5203 8.89657Z" fill="#333333"/>
<path d="M21.0358 8.89649C21.0358 9.68086 20.3719 10.3163 19.5527 10.3163C18.7325 10.3163 18.0669 9.68086 18.0669 8.89649C18.0669 8.11278 18.7325 7.4773 19.5527 7.4773C20.3719 7.47694 21.0358 8.11278 21.0358 8.89649Z" fill="#333333"/>
<path d="M17.4707 10.9197L13.41 20.29L12.3921 24.495L13.0777 24.7665L15.4677 21.1044L16.0363 19.7938C15.5926 18.7692 16.1009 17.5944 17.1724 17.1708L19.5271 11.7341C18.7262 11.7277 18.0016 11.4184 17.4707 10.9197Z" fill="#333333"/>
<path d="M21.633 10.9189C21.1018 11.4183 20.3766 11.7276 19.5757 11.7337L23.0685 19.7921L25.1249 18.9781L21.633 10.9189Z" fill="#333333"/>
<path d="M20.6652 4.63959V1.44617C20.6648 0.857652 20.1649 0.381592 19.552 0.381592C18.9371 0.381592 18.4388 0.857008 18.4385 1.44617L18.4388 4.63959H20.6652Z" fill="#333333"/>
<path d="M19.5528 6.05887C19.7425 6.05887 19.9285 6.07709 20.1085 6.10969V4.63965H18.9956V6.10969C19.1763 6.07676 19.3612 6.05887 19.5528 6.05887Z" fill="#333333"/>
<path d="M4.0956 25.9407H0.392822V0.380859H4.09629C4.91449 0.380859 5.57739 1.01699 5.57739 1.80136V24.5214H5.57708C5.5767 25.3058 4.91381 25.9407 4.0956 25.9407Z" fill="#333333"/>
<path d="M3.91103 2.51126C4.21787 2.51126 4.46666 2.27281 4.46666 1.97865C4.46666 1.6845 4.21787 1.44604 3.91103 1.44604C3.60419 1.44604 3.35547 1.6845 3.35547 1.97865C3.35547 2.27281 3.60419 2.51126 3.91103 2.51126Z" fill="#333333"/>
<path d="M8.16943 15.4695C8.16943 15.7625 8.41841 16.0018 8.725 16.0018C9.03196 16.0018 9.28062 15.7625 9.28062 15.4695C9.28062 15.7625 9.52991 16.0018 9.83618 16.0018C10.1431 16.0018 10.3917 15.7625 10.3917 15.4695C10.3917 15.7625 10.1431 16.0018 9.83618 16.0018C9.52991 16.0018 9.28062 15.7625 9.28062 15.4695C9.28062 15.7625 9.03196 16.0018 8.725 16.0018C8.41841 16.0018 8.16943 15.7625 8.16943 15.4695Z" fill="#333333"/>
<path d="M8.91033 0.380859C8.50169 0.380859 8.16943 0.699402 8.16943 1.09175V1.09143V16.0016L9.28025 20.2615L10.3914 16.0016V1.09111V1.09143C10.3914 0.699722 10.0595 0.381179 9.65054 0.381179L8.91033 0.380859Z" fill="#333333"/>
</g>
<defs>
<clipPath id="clip0_1_163">
<rect width="27" height="26" fill="white"/>
</clipPath>
</defs>
</svg>
